<?xml version="1.0" encoding="UTF-8" standalone="no"?>
<!-- Created with Inkscape (http://www.inkscape.org/) -->

<svg
   width="13.64192mm"
   height="13.63927mm"
   viewBox="0 0 13.64192 13.63927"
   version="1.1"
   id="svg7733"
   inkscape:version="1.2.2 (b0a8486541, 2022-12-01)"
   sodipodi:docname="whatsapp.svg"
   xmlns:inkscape="http://www.inkscape.org/namespaces/inkscape"
   xmlns:sodipodi="http://sodipodi.sourceforge.net/DTD/sodipodi-0.dtd"
   xmlns="http://www.w3.org/2000/svg"
   xmlns:svg="http://www.w3.org/2000/svg">
  <sodipodi:namedview
     id="namedview7735"
     pagecolor="#ffffff"
     bordercolor="#000000"
     borderopacity="0.25"
     inkscape:showpageshadow="2"
     inkscape:pageopacity="0.0"
     inkscape:pagecheckerboard="0"
     inkscape:deskcolor="#d1d1d1"
     inkscape:document-units="mm"
     showgrid="false"
     inkscape:zoom="8.7786791"
     inkscape:cx="32.806758"
     inkscape:cy="40.438886"
     inkscape:window-width="1920"
     inkscape:window-height="1007"
     inkscape:window-x="0"
     inkscape:window-y="0"
     inkscape:window-maximized="1"
     inkscape:current-layer="layer1" />
  <defs
     id="defs7730" />
  <g
     inkscape:label="Capa 1"
     inkscape:groupmode="layer"
     id="layer1"
     transform="translate(-64.104413,-71.266473)">
    <path
       id="WhatsApp-3"
       class="cls-13"
       d="m 77.76435,77.962288 c 0,3.669771 -2.997729,6.643687 -6.696604,6.643687 -1.17475,0 -2.27806,-0.298979 -3.23585,-0.8255 l -3.70682,1.177396 1.20915,-3.563937 c -0.60854,-1.000125 -0.96044,-2.174875 -0.96044,-3.431646 0,-3.669771 2.99773,-6.643687 6.696606,-6.643687 3.698875,0 6.696604,2.973916 6.696604,6.643687 z m -6.696604,-5.585354 c -3.10356,0 -5.63033,2.505604 -5.63033,5.585354 0,1.222375 0.39952,2.354792 1.07156,3.275542 l -0.70379,2.074333 2.16429,-0.687917 c 0.889,0.584729 1.952625,0.923396 3.09827,0.923396 3.103563,0 5.630334,-2.505604 5.630334,-5.585354 0,-3.07975 -2.524125,-5.585354 -5.630334,-5.585354 z"
       style="fill:#25d366;stroke-width:0px;fill-opacity:1"
       sodipodi:nodetypes="cscccssccsscccsss" />
    <path
       id="WhatsApp"
       class="cls-13"
       d="m 77.35204,77.890911 c 0,3.442756 -2.812287,6.232703 -6.282347,6.232703 -1.102079,0 -2.137137,-0.280484 -3.035677,-0.774434 l -3.477513,1.104561 1.134351,-3.343469 c -0.570895,-0.938256 -0.901027,-2.040335 -0.901027,-3.219361 0,-3.442756 2.812288,-6.232703 6.282349,-6.232703 3.470059,0 6.282346,2.789947 6.282346,6.232703 z m -6.282347,-5.23984 c -2.91157,0 -5.282033,2.350606 -5.282033,5.23984 0,1.146758 0.374805,2.209123 1.005273,3.072914 l -0.660254,1.946013 2.030406,-0.645362 c 0.834006,0.548557 1.831834,0.866274 2.906608,0.866274 2.911574,0 5.282037,-2.350605 5.282037,-5.239839 0,-2.889234 -2.367981,-5.23984 -5.282037,-5.23984 z m 3.172201,6.674529 c -0.03971,-0.06453 -0.141484,-0.101769 -0.295377,-0.178716 -0.153895,-0.07694 -0.910953,-0.446788 -1.052436,-0.496432 -0.141483,-0.05213 -0.243252,-0.07695 -0.347503,0.07694 -0.101768,0.153893 -0.397144,0.496432 -0.486503,0.598201 -0.08935,0.101768 -0.178715,0.114178 -0.332609,0.03971 -0.153893,-0.07694 -0.650326,-0.238287 -1.238598,-0.757058 -0.456717,-0.404593 -0.766987,-0.905989 -0.856345,-1.0574 -0.08936,-0.153895 -0.0099,-0.235805 0.06702,-0.31027 0.0695,-0.06949 0.153894,-0.178716 0.230841,-0.268073 0.07694,-0.08935 0.101768,-0.153895 0.153894,-0.255663 0.05213,-0.101769 0.02482,-0.191126 -0.01241,-0.268073 -0.03723,-0.07694 -0.347501,-0.829042 -0.474091,-1.134347 -0.129074,-0.305307 -0.255666,-0.255663 -0.347509,-0.255663 -0.09185,0 -0.193604,-0.01241 -0.295374,-0.01241 -0.101769,0 -0.270559,0.03724 -0.409554,0.191127 -0.141481,0.153893 -0.538633,0.523736 -0.538633,1.273348 0,0.749612 0.551045,1.479366 0.627991,1.581135 0.07692,0.101769 1.064847,1.695316 2.631089,2.305927 1.566244,0.610612 1.566244,0.407073 1.846728,0.382252 0.282966,-0.02482 0.910952,-0.369841 1.040025,-0.727272 0.129072,-0.357432 0.129072,-0.662738 0.08935,-0.727273 z"
       style="fill:#ffffff;stroke-width:0px" />
  </g>
</svg>
