<?xml version="1.0" encoding="UTF-8" standalone="no"?>
<!-- Created with Inkscape (http://www.inkscape.org/) -->

<svg
   width="13.64192mm"
   height="13.63927mm"
   viewBox="0 0 13.64192 13.63927"
   version="1.1"
   id="svg7733"
   inkscape:version="1.2.2 (b0a8486541, 2022-12-01)"
   sodipodi:docname="whatsapp.svg"
   xmlns:inkscape="http://www.inkscape.org/namespaces/inkscape"
   xmlns:sodipodi="http://sodipodi.sourceforge.net/DTD/sodipodi-0.dtd"
   xmlns="http://www.w3.org/2000/svg"
   xmlns:svg="http://www.w3.org/2000/svg">
  <sodipodi:namedview
     id="namedview7735"
     pagecolor="#ffffff"
     bordercolor="#000000"
     borderopacity="0.25"
     inkscape:showpageshadow="2"
     inkscape:pageopacity="0.0"
     inkscape:pagecheckerboard="0"
     inkscape:deskcolor="#d1d1d1"
     inkscape:document-units="mm"
     showgrid="false"
     inkscape:zoom="0.77593294"
     inkscape:cx="154.65254"
     inkscape:cy="292.55105"
     inkscape:window-width="1920"
     inkscape:window-height="1007"
     inkscape:window-x="0"
     inkscape:window-y="0"
     inkscape:window-maximized="1"
     inkscape:current-layer="layer1" />
  <defs
     id="defs7730" />
  <g
     inkscape:label="Capa 1"
     inkscape:groupmode="layer"
     id="layer1"
     transform="translate(-64.104413,-71.266473)">
    <path
       id="WhatsApp"
       class="cls-13"
       d="m 77.743687,77.91016 c 0,3.669771 -2.997729,6.643687 -6.696604,6.643687 -1.17475,0 -2.27806,-0.298979 -3.23585,-0.8255 l -3.70682,1.177396 1.20915,-3.563937 c -0.60854,-1.000125 -0.96044,-2.174875 -0.96044,-3.431646 0,-3.669771 2.99773,-6.643687 6.696606,-6.643687 3.698875,0 6.696604,2.973916 6.696604,6.643687 z m -6.696604,-5.585354 c -3.10356,0 -5.63033,2.505604 -5.63033,5.585354 0,1.222375 0.39952,2.354792 1.07156,3.275542 l -0.70379,2.074333 2.16429,-0.687917 c 0.889,0.584729 1.952625,0.923396 3.09827,0.923396 3.103563,0 5.630334,-2.505604 5.630334,-5.585354 0,-3.07975 -2.524125,-5.585354 -5.630334,-5.585354 z m 3.381375,7.114646 c -0.04233,-0.06879 -0.150812,-0.10848 -0.314854,-0.1905 -0.164042,-0.08202 -0.971021,-0.47625 -1.121833,-0.529167 -0.150813,-0.05556 -0.259292,-0.08202 -0.370417,0.08202 -0.108479,0.164041 -0.423333,0.529166 -0.518583,0.637646 -0.09525,0.108479 -0.1905,0.121708 -0.354542,0.04233 -0.164041,-0.08202 -0.693208,-0.254 -1.320271,-0.806979 -0.486833,-0.431271 -0.817562,-0.965729 -0.912812,-1.127125 -0.09525,-0.164042 -0.01058,-0.251354 0.07144,-0.330729 0.07408,-0.07408 0.164042,-0.1905 0.246063,-0.28575 0.08202,-0.09525 0.108479,-0.164042 0.164042,-0.272521 0.05556,-0.108479 0.02646,-0.203729 -0.01323,-0.28575 -0.03969,-0.08202 -0.370416,-0.883709 -0.505354,-1.209146 -0.137584,-0.325438 -0.272524,-0.272521 -0.370424,-0.272521 -0.0979,0 -0.20637,-0.01323 -0.31485,-0.01323 -0.10848,0 -0.2884,0.03969 -0.43656,0.203729 -0.15081,0.164042 -0.57415,0.558271 -0.57415,1.357313 0,0.799041 0.58738,1.576916 0.6694,1.685395 0.082,0.10848 1.135063,1.807105 2.804584,2.45798 1.669521,0.650875 1.669521,0.433916 1.9685,0.407458 0.301625,-0.02646 0.971021,-0.394229 1.108604,-0.775229 0.137584,-0.381 0.137584,-0.706438 0.09525,-0.775229 z"
       style="fill:#ffffff;stroke-width:0px" />
  </g>
</svg>
