<?xml version="1.0" encoding="UTF-8" standalone="no"?>
<!-- Created with Inkscape (http://www.inkscape.org/) -->

<svg
   width="7.4056873mm"
   height="4.7810206mm"
   viewBox="0 0 7.4056873 4.7810206"
   version="1.1"
   id="svg99263"
   inkscape:version="1.2.2 (b0a8486541, 2022-12-01)"
   sodipodi:docname="ico_email.svg"
   xmlns:inkscape="http://www.inkscape.org/namespaces/inkscape"
   xmlns:sodipodi="http://sodipodi.sourceforge.net/DTD/sodipodi-0.dtd"
   xmlns="http://www.w3.org/2000/svg"
   xmlns:svg="http://www.w3.org/2000/svg">
  <sodipodi:namedview
     id="namedview99265"
     pagecolor="#ffffff"
     bordercolor="#000000"
     borderopacity="0.25"
     inkscape:showpageshadow="2"
     inkscape:pageopacity="0.0"
     inkscape:pagecheckerboard="0"
     inkscape:deskcolor="#d1d1d1"
     inkscape:document-units="mm"
     showgrid="false"
     inkscape:zoom="0.77593294"
     inkscape:cx="14.176483"
     inkscape:cy="9.0213982"
     inkscape:window-width="1920"
     inkscape:window-height="1007"
     inkscape:window-x="0"
     inkscape:window-y="0"
     inkscape:window-maximized="1"
     inkscape:current-layer="layer1" />
  <defs
     id="defs99260" />
  <g
     inkscape:label="Capa 1"
     inkscape:groupmode="layer"
     id="layer1"
     transform="translate(-101.32127,-146.27999)">
    <g
       id="g779"
       transform="matrix(0.26458333,0,0,0.26458333,-218.03346,-624.37188)">
      <path
         class="cls-17"
         d="m 1233.65,2930.71 c -0.19,0.04 -0.38,0.06 -0.64,0.06 H 1209 c -0.26,0 -0.46,-0.02 -0.63,-0.06 l 2.19,-2.54 c 1.92,-2.21 3.85,-4.43 5.78,-6.66 0.04,-0.04 0.08,-0.1 0.12,-0.13 0.04,0.03 0.08,0.07 0.14,0.12 l 0.38,0.31 c 0.52,0.43 1.04,0.87 1.56,1.29 1.56,1.29 3.37,1.29 4.95,0.01 0.68,-0.56 1.35,-1.11 2.02,-1.68 0.03,-0.03 0.05,-0.04 0.06,-0.05 0.01,0.01 0.03,0.03 0.06,0.07 2.07,2.39 4.15,4.79 6.22,7.17 l 1.81,2.08 z"
         id="path771"
         style="fill:#4d4d4d;stroke-width:0px" />
      <path
         class="cls-17"
         d="m 1233.7,2912.76 c -0.67,0.56 -1.34,1.11 -2.01,1.66 l -3.65,3.02 c -1.81,1.49 -3.61,2.98 -5.42,4.48 -1.11,0.92 -2.14,0.92 -3.24,0.01 -3.67,-3.03 -7.33,-6.05 -11,-9.09 -0.02,-0.02 -0.06,-0.05 -0.11,-0.07 h 0.03 c 0.05,-0.01 0.1,-0.02 0.14,-0.03 0.18,-0.04 0.38,-0.04 0.58,-0.04 h 23.97 c 0.29,0 0.51,0.02 0.7,0.06 z"
         id="path773"
         style="fill:#4d4d4d;stroke-width:0px" />
      <path
         class="cls-17"
         d="m 1215.34,2920.45 c 0,0 -0.03,0.04 -0.07,0.09 -1.19,1.37 -2.39,2.75 -3.57,4.11 l -4.41,5.07 c 0,0 -0.05,0.07 -0.07,0.1 -0.01,-0.03 -0.03,-0.06 -0.05,-0.12 -0.14,-0.32 -0.16,-0.67 -0.16,-0.99 v -13.87 c 0,-0.45 0.03,-0.8 0.18,-1.12 2.69,2.23 5.4,4.46 8.1,6.69 0.02,0.02 0.04,0.03 0.05,0.04 z"
         id="path775"
         style="fill:#4d4d4d;stroke-width:0px" />
      <path
         class="cls-17"
         d="m 1235,2914.83 v 13.83 c 0,0.39 -0.02,0.79 -0.2,1.14 -0.01,0 -0.01,0.01 -0.01,0.01 h -0.01 l -7.98,-9.21 c -0.05,-0.04 -0.1,-0.11 -0.13,-0.15 0.03,-0.03 0.08,-0.07 0.14,-0.12 l 7.97,-6.57 c 0,0 0.03,-0.02 0.04,-0.03 0.01,0.01 0.02,0.03 0.03,0.06 0.14,0.32 0.15,0.67 0.15,1.04 z"
         id="path777"
         style="fill:#4d4d4d;stroke-width:0px" />
    </g>
  </g>
</svg>
