<?xml version="1.0" encoding="UTF-8" standalone="no"?>
<!-- Created with Inkscape (http://www.inkscape.org/) -->

<svg
   width="7.4078131mm"
   height="7.4079299mm"
   viewBox="0 0 7.4078131 7.4079299"
   version="1.1"
   id="svg102359"
   inkscape:version="1.2.2 (b0a8486541, 2022-12-01)"
   sodipodi:docname="ico_phone.svg"
   xmlns:inkscape="http://www.inkscape.org/namespaces/inkscape"
   xmlns:sodipodi="http://sodipodi.sourceforge.net/DTD/sodipodi-0.dtd"
   xmlns="http://www.w3.org/2000/svg"
   xmlns:svg="http://www.w3.org/2000/svg">
  <sodipodi:namedview
     id="namedview102361"
     pagecolor="#ffffff"
     bordercolor="#000000"
     borderopacity="0.25"
     inkscape:showpageshadow="2"
     inkscape:pageopacity="0.0"
     inkscape:pagecheckerboard="0"
     inkscape:deskcolor="#d1d1d1"
     inkscape:document-units="mm"
     showgrid="false"
     inkscape:zoom="0.77593294"
     inkscape:cx="-229.40127"
     inkscape:cy="15.465254"
     inkscape:window-width="1920"
     inkscape:window-height="1007"
     inkscape:window-x="0"
     inkscape:window-y="0"
     inkscape:window-maximized="1"
     inkscape:current-layer="layer1" />
  <defs
     id="defs102356" />
  <g
     inkscape:label="Capa 1"
     inkscape:groupmode="layer"
     id="layer1"
     transform="translate(-36.5326,-144.9664)">
    <path
       class="cls-17"
       d="m 43.940413,151.20752 c 0,0.11642 0,0.23019 0,0.34661 -0.0026,0.45772 -0.36248,0.8202 -0.820209,0.8202 -1.666875,0 -3.130021,-0.55827 -4.376208,-1.65893 -1.156229,-1.02394 -1.857375,-2.30717 -2.124604,-3.82852 -0.06615,-0.37571 -0.09525,-0.75671 -0.08467,-1.14036 0.01058,-0.40746 0.373063,-0.77258 0.783167,-0.77787 0.240771,-0.003 0.481541,-0.003 0.722312,0 0.351896,0.003 0.611188,0.17198 0.754063,0.48683 0.134937,0.29633 0.254,0.60325 0.365125,0.91017 0.140229,0.38893 -0.0344,0.80168 -0.415396,1.0107 -0.140229,0.0767 -0.142875,0.0767 -0.0926,0.23019 0.431271,1.3679 1.336146,2.2569 2.706687,2.66965 0.08202,0.0238 0.116417,0.003 0.153459,-0.0714 0.227541,-0.44979 0.645583,-0.60854 1.113895,-0.42598 0.26723,0.10319 0.531813,0.20902 0.79375,0.3175 0.325438,0.13494 0.518584,0.42333 0.518584,0.77258 0,0.11113 0,0.2249 0,0.33603 z"
       id="path781"
       style="fill:#4d4d4d;stroke-width:0px" />
  </g>
</svg>
