<?xml version="1.0" encoding="UTF-8" standalone="no"?>
<!-- Created with Inkscape (http://www.inkscape.org/) -->

<svg
   width="6.7610555mm"
   height="9.3305311mm"
   viewBox="0 0 6.7610555 9.3305311"
   version="1.1"
   id="svg96532"
   inkscape:version="1.2.2 (b0a8486541, 2022-12-01)"
   sodipodi:docname="ico_map.svg"
   xmlns:inkscape="http://www.inkscape.org/namespaces/inkscape"
   xmlns:sodipodi="http://sodipodi.sourceforge.net/DTD/sodipodi-0.dtd"
   xmlns="http://www.w3.org/2000/svg"
   xmlns:svg="http://www.w3.org/2000/svg">
  <sodipodi:namedview
     id="namedview96534"
     pagecolor="#ffffff"
     bordercolor="#000000"
     borderopacity="0.25"
     inkscape:showpageshadow="2"
     inkscape:pageopacity="0.0"
     inkscape:pagecheckerboard="0"
     inkscape:deskcolor="#d1d1d1"
     inkscape:document-units="mm"
     showgrid="false"
     inkscape:zoom="0.77593294"
     inkscape:cx="12.887712"
     inkscape:cy="18.042796"
     inkscape:window-width="1920"
     inkscape:window-height="1007"
     inkscape:window-x="0"
     inkscape:window-y="0"
     inkscape:window-maximized="1"
     inkscape:current-layer="layer1" />
  <defs
     id="defs96529" />
  <g
     inkscape:label="Capa 1"
     inkscape:groupmode="layer"
     id="layer1"
     transform="translate(-36.855982,-144.00523)">
    <g
       id="g769"
       transform="matrix(0.26458333,0,0,0.26458333,-282.80614,-610.2557)">
      <path
         class="cls-17"
         d="m 1222.19,2850.75 c 0.75,0.15 1.51,0.24 2.25,0.46 1.85,0.54 3.49,1.43 4.93,2.7 1.77,1.56 3.02,3.46 3.75,5.7 0.31,0.96 0.49,1.95 0.57,2.96 0.23,2.97 -0.69,5.68 -1.9,8.31 -1.92,4.21 -4.53,7.98 -7.37,11.61 -0.8,1.02 -1.63,2.01 -2.47,3 -0.61,0.7 -1.4,0.7 -2.01,0 -3.02,-3.51 -5.8,-7.19 -8.1,-11.21 -1.43,-2.49 -2.7,-5.06 -3.32,-7.89 -0.96,-4.35 0.07,-8.19 3.03,-11.51 1.84,-2.06 4.16,-3.31 6.84,-3.9 0.43,-0.09 0.88,-0.15 1.32,-0.22 0.83,0 1.65,0 2.48,0 z m -1.24,6.4 c -3.52,0 -6.37,2.84 -6.38,6.35 0,3.52 2.84,6.36 6.36,6.37 3.54,0 6.4,-2.84 6.39,-6.37 0,-3.51 -2.85,-6.35 -6.38,-6.35 z"
         id="path765"
         style="fill:#4d4d4d;stroke-width:0px" />
      <path
         class="cls-17"
         d="m 1222.19,2850.75 c 0.75,0.15 1.51,0.24 2.25,0.46 1.85,0.54 3.49,1.43 4.93,2.7 1.77,1.56 3.02,3.46 3.75,5.7 0.31,0.96 0.49,1.95 0.57,2.96 0.23,2.97 -0.69,5.68 -1.9,8.31 -1.92,4.21 -4.53,7.98 -7.37,11.61 -0.8,1.02 -1.63,2.01 -2.47,3 -0.61,0.7 -1.4,0.7 -2.01,0 -3.02,-3.51 -5.8,-7.19 -8.1,-11.21 -1.43,-2.49 -2.7,-5.06 -3.32,-7.89 -0.96,-4.35 0.07,-8.19 3.03,-11.51 1.84,-2.06 4.16,-3.31 6.84,-3.9 0.43,-0.09 0.88,-0.15 1.32,-0.22 0.83,0 1.65,0 2.48,0 z m -1.24,6.4 c -3.52,0 -6.37,2.84 -6.38,6.35 0,3.52 2.84,6.36 6.36,6.37 3.54,0 6.4,-2.84 6.39,-6.37 0,-3.51 -2.85,-6.35 -6.38,-6.35 z"
         id="path767"
         style="fill:#4d4d4d;stroke-width:0px" />
    </g>
  </g>
</svg>
